<svg xmlns="http://www.w3.org/2000/svg" viewBox="0 0 64 64"><defs><style>.cls-1{opacity:0.2;}</style></defs><title>space station</title><g id="space_station" data-name="space station"><path d="M51.09,17.15l-4.24-4.24a4,4,0,0,0-5.66,0L37,17.15a4,4,0,0,0,0,5.66c4.1,4.1,4.86,5.41,7.07,5.41s2.61-.95,7.07-5.41A4,4,0,0,0,51.09,17.15Zm-1.41,4.24-4.24,4.25a2,2,0,0,1-2.83,0l-4.25-4.25a2,2,0,0,1,0-2.83l4.25-4.24a2,2,0,0,1,2.83,0l4.24,4.24A2,2,0,0,1,49.68,21.39Z"/><path class="cls-1" d="M49.68,18.56c-6.48-6.48-4.84-6.47-11.32,0a2,2,0,0,0,0,2.83l4.25,4.25a2,2,0,0,0,2.83,0l4.24-4.25A2,2,0,0,0,49.68,18.56Zm-6.37,5-2.82-2.82a1,1,0,0,1,1.41-1.42l2.83,2.83A1,1,0,0,1,43.31,23.51Zm2.83-2.82-2.83-2.83a1,1,0,0,1,1.42-1.42l2.83,2.83A1,1,0,0,1,46.14,20.69Z"/><path d="M27.05,41.19,22.81,37a4.1,4.1,0,0,0-5.66,0l-4.24,4.24a4,4,0,0,0,0,5.66l4.24,4.24a4,4,0,0,0,5.66,0c3.2-3.2,1.71-1.69,4.24-4.24A4,4,0,0,0,27.05,41.19Zm-1.41,4.25-4.25,4.24a2.06,2.06,0,0,1-2.83,0l-4.24-4.24a2,2,0,0,1,0-2.83c6.46-6.47,4.83-6.49,11.32,0A2,2,0,0,1,25.64,45.44Z"/><path class="cls-1" d="M25.64,42.61l-4.25-4.25a2,2,0,0,0-2.83,0l-4.24,4.25a2,2,0,0,0,0,2.83c6.44,6.44,4.86,6.46,11.32,0A2,2,0,0,0,25.64,42.61Zm-6.37,5-2.83-2.83a1,1,0,0,1,1.42-1.42l2.83,2.83A1,1,0,0,1,19.27,47.56Zm2.83-2.83L19.27,41.9a1,1,0,0,1,1.42-1.41l2.82,2.82A1,1,0,0,1,22.1,44.73Z"/><path d="M42.28,29.55l-7.83-7.83a4.47,4.47,0,0,0-6.31,0c-6.6,6.62-7.73,7.15-7.73,9.57s1.66,3.51,4.52,6.37c4.61,4.61,5.34,5.92,7.78,5.92s2.91-1,9.57-7.72A4.47,4.47,0,0,0,42.28,29.55Zm-1.42,4.9-6.41,6.41a2.46,2.46,0,0,1-3.49,0c-8.46-8.46-8.55-8.2-8.55-9.57s.19-1.2,7.14-8.15a2.47,2.47,0,0,1,3.49,0L40.86,31A2.46,2.46,0,0,1,40.86,34.45Z"/><path d="M40.49,24.93c-2.32,2.32-2.31,2.41-2.83,2.41a1,1,0,0,1-.71-1.7l2.12-2.13A1,1,0,0,1,40.49,24.93Z"/><path d="M27.05,38.36c-2.2,2.2-2.25,2.42-2.83,2.42a1,1,0,0,1-.71-1.71L25.64,37A1,1,0,0,1,27.05,38.36Z"/><path d="M39.07,16c-.55,0-.57-.16-2.83-2.41a1,1,0,0,1,1.42-1.42l2.12,2.12A1,1,0,0,1,39.07,16Z"/><path d="M41.19,8.67c-5.29-5.29-5.08-5.23-5.63-5.23s0-.39-7.78,7.37a1,1,0,0,0,0,1.41l4.93,4.93a1,1,0,0,0,1.41,0c3.94-3.93,3.08-3.07,7.07-7.07A1,1,0,0,0,41.19,8.67ZM33.41,15,29.9,11.51l5.66-5.65,3.51,3.51Z"/><path d="M29,16.6,19.12,6.7a1,1,0,0,0-1.42,0l-11,11a1,1,0,0,0,0,1.42c10.75,10.74,10,10.19,10.61,10.19S17.05,30,29,18A1,1,0,0,0,29,16.6ZM17.31,26.89,8.82,18.41l9.59-9.59,8.48,8.49Z"/><path class="cls-1" d="M26.89,17.31l-9.58,9.58L8.82,18.41l9.59-9.59Z"/><path d="M57.3,44.88,47.4,35A1,1,0,0,0,46,35c-6.58,6.6-4.57,4.59-11,11a1,1,0,0,0,0,1.41c10.45,10.46,10,10.19,10.6,10.19s-.23.65,11.71-11.29A1,1,0,0,0,57.3,44.88ZM45.59,55.18l-8.48-8.49,9.58-9.58,8.49,8.48Z"/><polygon class="cls-1" points="55.18 45.59 45.59 55.18 37.11 46.69 46.69 37.11 55.18 45.59"/><path d="M49.68,27.05l-2.12-2.12A1,1,0,0,1,49,23.51l2.12,2.13A1,1,0,0,1,49.68,27.05Z"/><path d="M59.26,26.74,54.63,22.1a1,1,0,0,0-1.42,0l-7.07,7.07a1,1,0,0,0,0,1.42c5,5,4.77,4.92,5.35,4.92s.13.28,7.77-7.36A1,1,0,0,0,59.26,26.74ZM51.49,33.1l-3.23-3.22,5.66-5.66,3.22,3.22Z"/><path d="M15,40.07c-.55,0-.57-.15-2.83-2.41a1,1,0,0,1,1.42-1.42l2.12,2.12A1,1,0,0,1,15,40.07Z"/><path d="M17.15,32.71l-4.93-4.93a1,1,0,0,0-1.41,0L3.74,34.85a1,1,0,0,0,0,1.41C9,41.54,8.81,41.49,9.37,41.49s.15.29,7.78-7.37A1,1,0,0,0,17.15,32.71ZM9.37,39.07,5.86,35.56l5.65-5.66L15,33.41Z"/><path d="M25.64,51.09,23.51,49a1,1,0,0,1,1.42-1.41l2.12,2.12A1,1,0,0,1,25.64,51.09Z"/><path d="M35.72,51.28l-5.13-5.14a1,1,0,0,0-1.42,0L22.1,53.21a1,1,0,0,0,0,1.42c5.43,5.42,5.27,5.43,5.84,5.43s0,.39,7.78-7.37A1,1,0,0,0,35.72,51.28Zm-7.78,6.36-3.72-3.72,5.66-5.66L33.6,52Z"/><path d="M25.64,26.64c-.56,0-.46-.05-3.54-3.13a1,1,0,0,1,1.41-1.41l2.83,2.83A1,1,0,0,1,25.64,26.64Z"/><path d="M41.19,42.19c-.55,0-.46,0-3.53-3.12a1,1,0,0,1,1.41-1.41l2.83,2.83A1,1,0,0,1,41.19,42.19Z"/><path d="M39.78,31.29l-7.07-7.07a1,1,0,0,0-1.42,0l-7.07,7.07a1,1,0,0,0,0,1.42c7.64,7.64,7.19,7.36,7.78,7.36s.18.24,7.78-7.36A1,1,0,0,0,39.78,31.29ZM32,37.66,26.34,32,32,26.34,37.66,32Z"/><rect class="cls-1" x="28" y="28" width="8" height="8" transform="translate(-13.25 32) rotate(-45)"/></g></svg>